<?xml version="1.0" encoding="UTF-8"?><svg id="b" xmlns="http://www.w3.org/2000/svg" width="256.382" height="329.288" viewBox="0 0 256.382 329.288"><defs><style>.e{fill:#fff;}.f{fill:#74c66d;}.g{fill:#211715;}.h{fill:#645d5c;}</style></defs><g id="c"><g id="d"><path class="e" d="M191.321,79.711c1.516-1.457,3.559-2.005,5.308-1.943,3.805.134,5.423,2.192,6.12,3.4,2.08,3.606,1.992,10.252.596,14.364-.989,2.912-2.608,7.367-6.512,10.561-1.77,1.449-4.46,2.353-6.917,1.64-1.742,6.078-4.918,13.427-10.532,20.259-3.704,4.508-7.26,7.576-11.31,9.857,0,4.38,0,7.281,0,7.281,0,1.287,0,2.691.476,3.943.638,1.647,1.496,3.073,2.876,4.187,2.923,2.354,5.926,3.479,9.626,4.871,0,0,.803.317,1.77.698l-7.179,5.366c-8.355,4.227-19.439,7.16-30.862,7.194-11.537-.034-22.729-3.026-31.113-7.322,0,0-5.039-2.851-8.234-4.654l3.255-1.281c3.7-1.392,6.703-2.517,9.626-4.871,1.38-1.113,2.238-2.54,2.876-4.187.476-1.253.476-2.656.476-3.943,0,0,0-2.329-.003-6.183-4.531-2.484-8.651-6.166-12.587-10.955-5.594-6.808-8.768-14.13-10.514-20.195-2.392.59-4.967-.303-6.68-1.705-3.904-3.194-5.523-7.649-6.512-10.561-1.396-4.112-1.484-10.757.596-14.364.697-1.208,2.315-3.266,6.12-3.4,1.748-.062,3.791.486,5.308,1.943,0,0-15.538-51.416,45.462-51.416s48.466,51.416,48.466,51.416Z"/><path class="e" d="M240.259,209.813c4.229,18.56,5.82,32.414,7.71,50.038,1.986,18.528,4.341,39.535,6.007,59.757,0,0-27.815,0-43.686,0,.012,2.005.024,3.961.002,5.925-.01.27-.11.63-.26.86-.16.23-.83.39-1.11.39-10.25,0-123.152.12-128.022.1-.48-.01-.86-.16-1.13-.56-.087-.144-.132-1.06-.135-1.813-.102-8.962-.22-19.053-.349-29.534l-1.722,2.857c-4.41,7.605-14.451,11.538-21.992,9.788-7.54-1.75-14.479-6.801-18.424-13.461-7.019-11.851-12.995-42.118-18.787-58.042l41.104-50.708c3.054-4.711,8.948-9.526,13.651-12.508,9.961-6.316,21.57-9.761,31.858-13.751,3.145,1.777,8.691,4.914,8.691,4.914,8.384,4.296,19.576,7.288,31.113,7.322,11.422-.034,22.507-2.967,30.862-7.194l7.562-5.652c6.671,1.829,17.446,6.044,22.445,8.159,5.693,2.408,11.581,5.671,17.922,11.311,8.715,7.752,12.617,18.587,16.689,31.801"/><path class="f" d="M210.29,325.528c-.01.27-.11.63-.26.86-.16.23-.83.39-1.11.39-10.25,0-123.15.12-128.02.1-.48-.01-.86-.16-1.13-.56-.09-.14-.13-1.06-.13-1.81-.15-12.34-.32-26.83-.5-41.52h3.1c3.33-32.05,5.11-63.81,6.31-78.85.19-8.34.59-24.98.68-38.26v-.84c4.16-1.64,8.34-3.11,12.37-4.61v1.31c-.05,11.66-.35,32.66-.35,42.24,9.33,0,62.82.69,85.73.22-.06-13.13.18-31.14.02-44.51,4.42,1.43,9.6,3.37,13.76,5.02.02.25.03.4.03.4.74,20.29.81,29.12,1.57,45.6.26,9.33,2.64,41.35,5.78,68.08h2.94c-.22,16.63-.41,33.23-.57,47.01"/><path class="g" d="M61.538,186.623c3.748-5.67,9.761-10.017,15.597-13.33,6.36-3.611,13.21-6.195,20.061-8.7,3.824-1.398,7.656-2.778,11.423-4.327,1.198-.493,2.05-1.594,1.676-2.952-.311-1.133-1.746-2.172-2.952-1.676-14.117,5.805-29.144,9.664-41.258,19.397-3.288,2.642-6.357,5.634-8.692,9.166-1.708,2.584,2.447,4.991,4.145,2.423h0Z"/><path class="g" d="M75.604,212.354c.312,13.279.514,26.56.71,39.841.239,16.159.446,32.319.642,48.478.101,8.376.199,16.751.294,25.127.035,3.087,4.835,3.095,4.8,0-.175-15.424-.358-30.848-.558-46.272-.202-15.563-.417-31.126-.684-46.688-.117-6.829-.243-13.658-.403-20.486-.072-3.084-4.873-3.095-4.8,0h0Z"/><path class="g" d="M86.825,165.881c-.051,8.007-.192,16.014-.357,24.02-.122,5.963-.152,11.931-.594,17.88-1.088,14.644-2.02,29.299-3.193,43.937-.836,10.432-1.764,20.856-2.843,31.266-.134,1.291,1.199,2.4,2.4,2.4,1.409,0,2.266-1.105,2.4-2.4,1.829-17.658,3.222-35.358,4.477-53.066.473-6.682.922-13.365,1.405-20.046.416-5.747.567-11.472.69-17.235.19-8.918.357-17.837.414-26.757.02-3.089-4.78-3.093-4.8,0h0Z"/><path class="g" d="M184.616,160.862c.135,14.444-.098,28.889-.033,43.334l2.4-2.4c-12.097.249-24.201.186-36.3.133-12.541-.055-25.082-.165-37.622-.273-3.937-.034-7.874-.081-11.81-.082l2.4,2.4c.003-14.079.29-28.158.345-42.237.012-3.089-4.788-3.093-4.8,0-.055,14.079-.342,28.157-.345,42.237,0,1.298,1.1,2.4,2.4,2.4,8.869.002,17.74.136,26.608.207,13.436.108,26.873.199,40.31.178,6.271-.009,12.544-.035,18.814-.164,1.293-.027,2.406-1.078,2.4-2.4-.065-14.445.168-28.889.033-43.334-.029-3.087-4.829-3.095-4.8,0h0Z"/><path class="g" d="M210.538,278.784c-1.958-16.712-3.493-33.478-4.723-50.259-.888-12.109-1.385-24.231-1.762-36.366-.281-9.017-.537-18.035-.866-27.05-.112-3.08-4.913-3.094-4.8,0,.557,15.273,1.027,30.549,1.576,45.822.461,12.811,1.608,25.614,2.756,38.378.885,9.837,1.87,19.666,3.02,29.476.151,1.287.995,2.4,2.4,2.4,1.18,0,2.552-1.104,2.4-2.4h0Z"/><path class="h" d="M198.344,41.908c-2.327-7.11-6.137-13.395-11.676-17.829l-6.243-6.547c-7.082-9.338-18.595-14.4-35.042-15.121-21.396-.724-37.19,8.851-44.182,17.768l1.434,1.482c-14.512,12.595-19.794,35.127-12.757,56.446.639-.186,1.37-.308,2.207-.338,1.748-.062,3.791.486,5.308,1.943l7.506-6.303c5.633-6.277,15.576-15.738,22.553-19.398.818-.429,1.869.151,2.201,1.519.32,1.321.319,2.324.215,3.273-.158,1.441,1.241,2.49,2.429,1.83,4.981-2.767,13.856-8.336,20.149-10.988l9.332,1.146c3.004,1.306,5.289,2.561,8.595,5.406,5.665,4.874,11.095,11.561,13.501,17.613l7.449,5.902c1.516-1.457,3.559-2.005,5.308-1.943.958.034,1.778.19,2.479.423,2.882-11.402,2.961-24.9-.764-36.284Z"/><path class="g" d="M112.454,166.139c15.769,8.011,34.415,9.655,51.439,5.054,4.467-1.207,8.822-2.851,12.959-4.926,2.762-1.385.334-5.527-2.423-4.145-14.559,7.303-31.797,8.671-47.453,4.453-4.177-1.125-8.242-2.621-12.1-4.581-2.748-1.396-5.18,2.744-2.423,4.145h0Z"/><path class="g" d="M165.672,139.1v4.849c0,1.919-.089,3.926.561,5.762,1.246,3.516,3.843,5.902,7.047,7.674,3.817,2.111,8.131,3.454,12.188,5.055,1.206.476,2.635-.522,2.952-1.676.374-1.363-.466-2.475-1.676-2.952-3.379-1.333-6.932-2.482-10.175-4.114-2.474-1.246-4.962-2.816-5.825-5.607-.474-1.532-.272-3.294-.272-4.876v-4.115c0-3.089-4.8-3.094-4.8,0h0Z"/><path class="g" d="M119.265,140.19v4.388c0,1.421.068,2.825-.508,4.135-1.131,2.574-3.552,4.008-6.034,5.203-3.131,1.508-6.507,2.622-9.742,3.896-1.205.474-2.046,1.607-1.676,2.952.316,1.148,1.739,2.154,2.952,1.676,3.907-1.538,8.022-2.854,11.738-4.806,3.096-1.627,5.748-3.789,7.152-7.061,1.379-3.215.918-6.959.918-10.383,0-3.089-4.8-3.094-4.8,0h0Z"/><path class="g" d="M102.898,21.875c6.282-7.945,15.865-12.919,25.578-15.346,6.497-1.623,13.211-2.066,19.88-1.537,5.729.454,11.539,1.556,16.848,3.82,5.099,2.174,9.762,5.508,13.148,9.931.787,1.027,2.066,1.573,3.284.861,1.011-.592,1.654-2.248.861-3.284-3.364-4.394-7.556-7.989-12.489-10.527-5.619-2.891-11.751-4.425-17.991-5.223-13.529-1.731-27.652.425-39.589,7.205-4.857,2.759-9.446,6.306-12.925,10.706-.803,1.016-.991,2.403,0,3.394.834.834,2.586,1.022,3.394,0h0Z"/><path class="g" d="M92.11,77.217c-4.721-14.674-3.939-31.384,4.361-44.659,2.156-3.448,4.801-6.522,7.86-9.201,2.328-2.039-1.078-5.422-3.394-3.394-12.34,10.805-17.658,27.834-16.358,43.9.402,4.973,1.374,9.883,2.902,14.631.942,2.929,5.578,1.676,4.629-1.276h0Z"/><path class="g" d="M184.971,25.776c11.448,9.269,14.525,25.342,13.721,39.343-.236,4.111-.851,8.174-1.833,12.173-.736,3,3.891,4.279,4.629,1.276,3.708-15.103,3.122-32.819-4.914-46.501-2.152-3.664-4.902-7.008-8.209-9.685-1.007-.815-2.41-.984-3.394,0-.843.843-1.013,2.574,0,3.394h0Z"/><path class="g" d="M95.324,104.785c1.546,7.01,4.348,13.813,8.292,19.816,4.219,6.42,9.774,12.454,16.527,16.248,3.426,1.925,7.172,3.241,11.056,3.835,1.28.196,2.581-.324,2.952-1.676.312-1.136-.387-2.755-1.676-2.952-13.871-2.123-24.172-14.263-29.394-26.605-1.354-3.201-2.38-6.549-3.129-9.942-.665-3.015-5.294-1.739-4.629,1.276h0Z"/><path class="g" d="M188.505,103.509c-1.758,7.972-5.168,15.624-10.231,22.057-2.512,3.192-5.391,6.224-8.744,8.542-3.092,2.138-6.486,3.659-10.049,4.82-2.924.953-1.673,5.59,1.276,4.629,6.316-2.059,11.996-5.212,16.737-9.908,5.443-5.391,9.622-11.934,12.541-18.995,1.32-3.193,2.354-6.496,3.098-9.869.664-3.01-3.963-4.296-4.629-1.276h0Z"/><path class="g" d="M135.634,119.1c2.874,1.518,5.969,2.155,9.22,2.134,3.314-.021,6.652-.678,9.305-2.745,1.023-.797.837-2.557,0-3.394-1.01-1.01-2.368-.799-3.394,0,.728-.567.164-.134-.023-.014-.185.119-.375.228-.57.33-.101.053-.204.1-.305.152-.389.2.096-.042.097-.032.005.046-.718.264-.786.286-.717.23-1.455.392-2.2.502.355-.053-.063.004-.208.018-.216.021-.432.039-.648.053-.521.034-1.042.047-1.564.044-.467-.003-.934-.019-1.4-.05-.214-.015-.428-.032-.641-.053-.025-.003-.798-.111-.308-.033-.694-.11-1.381-.255-2.055-.456-.288-.086-.569-.189-.853-.287-.613-.21.354.183-.199-.078-.352-.166-.7-.339-1.044-.521-1.146-.605-2.61-.291-3.284.861-.634,1.084-.289,2.676.861,3.284h0Z"/><path class="g" d="M143.631,97.384c.402,1.532.787,3.089,1.018,4.657l-.086-.638c.027.215.039.427.017.643l.086-.638c-.015.1-.037.194-.071.289l.242-.573c-.03.067-.061.125-.102.186l.375-.486c-.048.058-.093.103-.152.15l.486-.375c-.118.076-.242.137-.369.195l.573-.242c-.203.085-.404.147-.622.181l.638-.086c-.196.023-.388.022-.584-.001l.638.086c-.22-.031-.436-.084-.656-.114-.319-.1-.638-.114-.957-.043-.319.014-.617.109-.892.285-.498.291-.973.862-1.103,1.434-.14.614-.11,1.304.242,1.849.312.484.835,1.022,1.434,1.103.502.068.989.195,1.5.218.784.034,1.511-.206,2.211-.526.865-.396,1.54-1.174,1.77-2.105.195-.788.111-1.477-.022-2.266-.253-1.5-.6-2.987-.986-4.459-.318-1.214-1.729-2.072-2.952-1.676-1.25.404-2.018,1.651-1.676,2.952h0Z"/><path class="g" d="M119.019,84.193c-.778,2.527-.271,8.341,4.517,8.836,6.328-.038,6.665-7.067,4.535-10.372-1.744-2.706-6.873-3.831-9.052,1.536Z"/><path class="g" d="M169.694,84.193c.778,2.527.271,8.341-4.517,8.836-6.328-.038-6.665-7.067-4.535-10.372,1.744-2.706,6.873-3.831,9.052,1.536Z"/><path class="g" d="M99.09,78.014c-3.119-2.822-7.64-3.404-11.434-1.602-2.776,1.318-4.388,4.077-5.093,6.969-1.664,6.824.075,14.658,4.042,20.413,2.861,4.151,6.915,7.13,12.154,6.414,1.286-.176,1.987-1.822,1.676-2.952-.381-1.386-1.663-1.852-2.952-1.676-3.59.49-6.405-3.365-7.879-6.084s-2.545-5.813-2.777-8.899c-.131-1.742-.125-3.539.214-5.258.141-.716.31-1.467.583-2.142.134-.332.311-.655.497-.96.036-.058.411-.601.246-.387.533-.694,1.622-1.399,2.936-1.613,1.566-.255,3.2.094,4.391,1.172,2.286,2.068,5.691-1.316,3.394-3.394h0Z"/><path class="g" d="M193.018,81.408c2.161-1.955,5.759-1.497,7.388.519-.325-.402.133.224.185.309.186.305.363.628.497.96.252.622.411,1.31.549,1.968.371,1.774.384,3.63.249,5.431-.228,3.031-1.271,6.066-2.694,8.743-1.471,2.767-4.313,6.739-7.962,6.241-1.283-.175-2.577.309-2.952,1.676-.308,1.12.384,2.776,1.676,2.952,8.538,1.166,13.498-7.155,15.753-14.187,1.152-3.594,1.295-7.545.717-11.256-.476-3.056-1.765-5.966-4.359-7.772-3.757-2.616-9.137-1.969-12.441,1.021-2.296,2.077,1.107,5.463,3.394,3.394h0Z"/><path class="g" d="M160.565,52.863c4.722,2.068,8.57,5.139,12.131,8.842s6.923,7.958,8.862,12.742c.487,1.2,1.598,2.048,2.952,1.676,1.138-.313,2.166-1.744,1.676-2.952-2.219-5.474-5.771-10.3-9.818-14.569-3.872-4.085-8.203-7.616-13.38-9.884-1.186-.52-2.576-.348-3.284.861-.595,1.018-.333,2.761.861,3.284h0Z"/><path class="g" d="M106.596,75.105c5.595-6.216,11.786-12.312,18.737-17.005.751-.507,1.516-.995,2.301-1.449.258-.149.695-.375.683-.419,0-.001-1.006-.139-.964-.175-.084.073.112.739.079.539.143.858-.007,1.673.024,2.531.048,1.341.697,2.595,1.801,3.363,2.056,1.43,4.017.361,5.909-.725,1.796-1.032,3.579-2.085,5.37-3.126,4.269-2.48,8.57-4.984,13.119-6.922,1.193-.508,1.456-2.266.861-3.284-.722-1.234-2.086-1.371-3.284-.861-4.071,1.734-7.939,3.933-11.769,6.14-1.918,1.105-3.825,2.23-5.74,3.341-.716.415-1.433.829-2.154,1.235.016-.009-.478.235-.486.272.019-.092.591-.176.817-.049l.283.26c.056.411.082.476.078.193.091-.195.046-.578.057-.806.104-2.313-.431-5.196-2.717-6.299-2.084-1.005-4.006.364-5.727,1.462-3.687,2.353-7.089,5.186-10.341,8.101-3.619,3.244-7.081,6.676-10.333,10.288-2.062,2.29,1.322,5.696,3.394,3.394h0Z"/><path class="g" d="M77.25,325.223c.064,1.295.229,2.371,1.289,3.24.706.578,1.55.78,2.445.821.215.01.433,0,.648.001.824,0,1.649,0,2.473,0,3.006,0,6.012-.002,9.018-.004,9.887-.006,19.774-.014,29.661-.023,12.049-.01,24.098-.022,36.147-.033,10.724-.01,21.448-.02,32.171-.029,5.877-.005,11.803.212,17.677-.013,2.332-.09,3.612-1.373,3.912-3.65.17-1.287-1.225-2.4-2.4-2.4-1.438,0-2.23,1.109-2.4,2.4.211-1.598,1.49-1.042.734-1.15-.17-.024-.361,0-.533,0-.415,0-.829,0-1.244,0-1.153,0-2.306.001-3.459.002-3.462.003-6.925.006-10.387.009-10.103.009-20.206.018-30.308.028-11.689.011-23.379.022-35.068.032-10.095.009-20.191.018-30.286.025-5.313.004-10.627.014-15.94.005-.096,0-.205-.015-.3,0-.403.063-.032-.313.366.142l.617,1.059c-.103-.347.004.313-.034-.462-.151-3.075-4.952-3.093-4.8,0h0Z"/><path class="g" d="M180.165,160.266c4.528.961,8.936,2.605,13.271,4.201,2.386.878,4.759,1.789,7.121,2.729.892.355,1.783.714,2.671,1.079.422.173.843.347,1.263.524.472.198-.826-.359.28.119.45.194.899.39,1.345.592,5.588,2.527,10.774,5.824,15.383,9.872,4.014,3.525,7.086,7.781,9.504,12.529,3.001,5.89,4.996,12.243,6.94,18.542.908,2.943,5.543,1.687,4.629-1.276-3.477-11.266-7.344-23.139-15.97-31.61-4.645-4.562-10.196-8.372-16.031-11.243-4.326-2.128-8.876-3.85-13.381-5.558-5.132-1.945-10.368-3.984-15.75-5.127-3.013-.64-4.301,3.986-1.276,4.629h0Z"/><path class="g" d="M75.492,296.623c-3.361,5.664-10.118,9.182-16.672,9.004-7.031-.191-14.33-5.119-18.35-10.76-3.481-4.884-5.269-10.546-7.107-16.226-2.277-7.039-4.202-14.187-6.157-21.32-2.007-7.321-3.944-14.696-6.53-21.84-.441-1.218-1.632-2.039-2.952-1.676-1.176.323-2.12,1.728-1.676,2.952,5.086,14.048,8.05,28.788,12.635,43,1.964,6.087,4.044,12.627,7.867,17.842,4.899,6.684,12.767,11.999,21.164,12.763,8.536.777,17.576-3.992,21.923-11.317,1.58-2.663-2.568-5.08-4.145-2.423h0Z"/><path class="g" d="M209.755,212.354c-.312,13.279-.514,26.56-.71,39.841-.239,16.159-.446,32.319-.642,48.478-.101,8.376-.199,16.751-.294,25.127-.035,3.09,4.765,3.092,4.8,0,.175-15.424.358-30.848.558-46.272.202-15.563.417-31.126.684-46.688.117-6.829.243-13.658.403-20.486.073-3.09-4.727-3.089-4.8,0h0Z"/><path class="g" d="M237.945,210.451c3.037,13.371,5.109,26.883,6.65,40.502,1.627,14.377,3.154,28.769,4.612,43.164.86,8.49,1.666,16.986,2.369,25.491.107,1.292,1.027,2.4,2.4,2.4,1.216,0,2.507-1.101,2.4-2.4-1.251-15.133-2.829-30.236-4.453-45.332-1.493-13.881-2.81-27.801-4.896-41.609-1.192-7.884-2.688-15.716-4.453-23.492-.684-3.011-5.313-1.737-4.629,1.276h0Z"/><path class="e" d="M54.306,199.098c-.036,4.907-2.873,11.116-4.311,13.747-.636,1.164-1.251,2.139-1.93,2.992-1.578,1.98-1.009,4.281-.99,6.979.01,1.47.341,2.764.401,3.815-4.845,2.494-18.836,5.701-25.326,7.271-1.385-2.833-6.472-10.846-7-11.241-4.635-3.468-10.659-12.697-12.426-22.151l-.31-3.542c-.111-1.272.411-4.928,2.87-5.941,1.934-.797,4.06-.251,5.546,1.311.111-1.544.232-3.219.232-3.219.1-1.38,1.352-3.763,4.026-4.57,2.089-.63,3.109.606,4.385,1.907-.245-1.818.218-4.048,1.755-5.15,2.363-1.692,7.353-2.424,8.063,3.333-2.699-9.598-5.839-21.333-6.24-23.995-.407-2.701,1.576-5.964,4.516-6.729,2.914-.758,6.6,3.167,7.203,5.036,2.889,8.951,4.76,15.464,7.564,26.413,1.762.18,3.451.42,5.338.672,1.223.163,3.26,1.336,3.92,2.378,2.185,3.445,3.217,6.618,2.712,10.682"/><path class="g" d="M44.429,183.87c-1.872-7.272-3.86-14.51-6.108-21.676-.519-1.653-.916-3.467-1.716-5.01-.629-1.212-1.605-2.331-2.629-3.225-2.621-2.289-5.976-3.429-9.146-1.454-2.977,1.856-4.637,5.358-4.087,8.818.221,1.389.58,2.762.916,4.127,1.233,5.02,2.595,10.01,3.968,14.994,1.441,5.23,2.889,10.462,4.474,15.651.9,2.946,5.535,1.69,4.629-1.276-2.706-8.854-5.136-17.808-7.46-26.769-.475-1.832-.945-3.666-1.375-5.509-.147-.631-.293-1.263-.416-1.898-.024-.121-.106-.701-.082-.428.024.271,0-.497.015-.644.026-.233.093-.501.183-.759.352-1.011,1.098-1.962,2.092-2.406.422-.188.569-.229.925-.169s.89.353,1.31.623c.883.567,1.753,1.47,2.232,2.227.127.201.247.404.352.617.131.266-.04-.084-.052-.115.072.196.129.4.193.599.27.841.539,1.683.805,2.525,2.341,7.414,4.408,14.903,6.346,22.432.769,2.989,5.4,1.722,4.629-1.276h0Z"/><path class="g" d="M.244,200.275c1.369,8.203,5.516,16.793,11.522,22.626.619.601,1.352,1.08,1.967,1.675-.464-.449-.206-.117-.104-.027-.552-.488-.151-.2.008.029.712,1.029,1.398,2.074,2.07,3.13,1.534,2.409,3.101,4.843,4.371,7.405.478.965,1.727,1.341,2.71,1.103,4.49-1.085,8.986-2.142,13.449-3.335,4.187-1.119,8.562-2.213,12.45-4.179.697-.353,1.251-1.287,1.189-2.072-.202-2.557-.743-5.178-.495-7.756.105-1.089.7-1.703,1.309-2.568.669-.951,1.243-1.968,1.774-3.001,2.237-4.353,4.138-9.261,4.242-14.208.065-3.09-4.735-3.09-4.8,0-.092,4.405-1.976,8.915-4.089,12.726-.613,1.105-1.373,2.065-2.056,3.117-.767,1.182-1.082,2.545-1.18,3.934-.183,2.597.291,5.183.495,7.756l1.189-2.072c-1.378.696-2.919,1.215-4.734,1.795-2.283.73-4.593,1.374-6.909,1.99-4.351,1.157-8.734,2.187-13.11,3.244l2.71,1.103c-1.27-2.562-2.838-4.996-4.371-7.405-.642-1.008-1.286-2.017-1.974-2.994-.705-1-1.306-1.502-2.074-2.185-2.685-2.39-4.755-5.433-6.483-8.561-2.162-3.913-3.711-8.131-4.447-12.547-.213-1.279-1.795-1.994-2.952-1.676-1.357.373-1.89,1.669-1.676,2.952H.244Z"/><path class="g" d="M12.51,190.624c-2.481-2.492-6.595-3.261-9.496-1.002-2.02,1.573-2.93,4.29-3.01,6.784-.037,1.144.187,2.331.389,3.451.256,1.418.666,2.799,1.209,4.133.65,1.594,1.357,3.422,2.66,4.609,1.208,1.101,2.696,1.716,4.317,1.852,3.569.298,6.38-2.692,7.445-5.814.418-1.227-.48-2.624-1.676-2.952-1.315-.361-2.532.445-2.952,1.676-.069.203-.137.408-.221.606.202-.479-.079.112-.144.222-.047.08-.357.518-.194.312.18-.226-.038.035-.067.062-.13.12-.248.255-.379.375-.084.077-.17.152-.258.226.043-.037.224-.167-.009.01-.21.16-.453.278-.661.435.043-.032.382-.098.133-.055-.085.015-.197.053-.277.084-.042.016-.376.083-.065.029s-.106.003-.173.002c-.231-.003-.695-.107-.267.011-.197-.055-.4-.102-.598-.154-.038-.01-.347-.142-.1-.031.272.122-.121-.076-.181-.11-.091-.052-.179-.109-.268-.165.195.123.139.139-.012-.015-.098-.1-.428-.463-.192-.15-.182-.241-.32-.518-.463-.783-.29-.539-.642-1.247-.836-1.715-.351-.847-.707-1.983-.938-2.979-.109-.471-.202-.947-.278-1.424-.029-.181-.078-.631-.031-.193-.028-.266-.062-.531-.086-.797-.024-.276-.036-.546-.025-.823.006-.14.033-.285.032-.425-.003-.257-.038.253-.038.251.026-.137.044-.275.071-.411.068-.351.157-.699.269-1.039.07-.215.282-.61.063-.211.106-.193.194-.394.308-.584.048-.081.102-.158.151-.239.255-.426-.18.112.028-.03.153-.105.535-.429.139-.184.12-.074.701-.343.335-.218.121-.042.243-.079.367-.111.045-.012.494-.096.297-.073-.152.018.767.028.591.004-.237-.032.156.039.165.041.158.047.317.085.473.139-.049-.017-.256-.122,0,0,.19.091.37.199.548.311-.015-.01.314.235.17.118-.085-.068.329.328.34.339,2.182,2.192,5.577-1.202,3.394-3.394h0Z"/><path class="g" d="M21.167,184.757c-1.108-1.137-2.266-2.273-3.866-2.641-1.787-.41-3.763.211-5.223,1.261-1.186.854-2.176,1.958-2.775,3.3-.693,1.551-.742,3.182-.682,4.863.126,3.58.893,7.175,2.282,10.478.517,1.228,1.08,2.495,2.008,3.476,1.229,1.299,3.028,2.015,4.783,2.173,2.026.182,3.783-.648,5.314-1.892,1.362-1.107,2.654-2.718,2.632-4.559-.037-3.087-4.837-3.095-4.8,0,0,.265.005.236.015-.088.115-.249.104-.243-.033.018-.157.226-.177.265-.057.117-.113.136-.23.267-.353.393-.453.47-.712.674-1.145.933-.721.431-1.748.396-2.622-.193-.081-.055-.429-.416-.266-.179-.103-.15-.2-.305-.293-.461-.31-.522-.58-1.073-.816-1.632.139.328-.181-.478-.165-.435-.139-.37-.269-.743-.391-1.118-.233-.718-.437-1.445-.613-2.179-.369-1.536-.605-3.086-.674-4.665-.022-.495-.028-.992-.018-1.488.003-.145.089-1.361.029-.961-.063.423.091-.298.112-.373.092-.25.086-.249-.018.003.061-.133.128-.263.2-.391.427-.764,1.023-1.381,1.993-1.652.131-.037.667-.043.424-.096.509.109-.108-.128.328.146.239.15.187.129.511.441.268.258.524.529.784.796,2.16,2.216,5.553-1.18,3.394-3.394h0Z"/><path class="g" d="M29.43,179.409c-2.665-2.278-6.583-2.169-9.413-.174-2.972,2.095-3.434,5.874-2.573,9.172.806,3.084,1.781,6.13,2.838,9.136.513,1.46.91,2.885,2.182,3.864,1.342,1.032,3.032,1.578,4.717,1.653,1.943.087,4.055-.727,5.397-2.149,1.058-1.121,1.478-2.512,2.045-3.904.489-1.201-.531-2.638-1.676-2.952-1.374-.378-2.461.471-2.952,1.676-.091.223-.173.448-.257.673-.04.107-.361.857-.105.312-.114.242-.244.469-.373.703-.153.222-.153.228-.001.018-.098.111-.202.217-.311.317.254-.232-.439.267-.561.32.214-.093-.828.228-.488.172-.656.109-.978.018-1.598-.171-.299-.091-.221-.043-.611-.261-.133-.074-.263-.154-.388-.239.205.169.212.169.023,0-.187-.203-.16-.164.082.118.13.303.134.298.011-.015-.111-.34-.246-.674-.366-1.011-.523-1.47-1.016-2.951-1.487-4.438-.467-1.476-.914-2.958-1.32-4.452-.092-.339-.184-.678-.269-1.018-.022-.087-.178-.962-.137-.57-.036-.342-.037-.69-.02-1.033.029-.3.029-.349,0-.147.021-.13.047-.259.079-.387.022-.094.246-.788.136-.535.051-.117.483-.76.322-.575.114-.125.236-.242.366-.351-.155.136-.119.123.108-.038.087-.051.814-.402.555-.3.715-.282,1.134-.344,1.683-.33.305.008.722.102.966.311.985.842,2.427.967,3.394,0,.862-.862.99-2.548,0-3.394h0Z"/><path class="g" d="M56.706,199.098c.455-4.007-.599-7.834-2.655-11.27-1.003-1.677-2.426-2.839-4.218-3.607-1.853-.794-4.02-.85-6.005-1.089-3.816-.461-7.813-.91-10.975,1.732-2.748,2.296-3.043,6.21-1.313,9.207,1.179,2.042,2.89,3.326,5.052,4.171,2.077.812,4.258,1.347,6.422,1.87,3.001.725,4.282-3.902,1.276-4.629-1.492-.36-2.982-.734-4.448-1.188-1.234-.383-2.523-.708-3.43-1.662-.389-.408-.727-.89-.952-1.41-.081-.187-.134-.384-.197-.635,0-.003-.07-.412-.042-.179.024.197-.003-.249-.003-.292-.002-.277.026-.521.13-.779.147-.364.233-.457.627-.84.467-.453,1.401-.823,2.192-.924,1.594-.205,3.327.094,4.912.272,1.438.161,3.059.236,4.418.605.487.132.795.307,1.266.6.248.154.425.292.567.414.098.084.196.18.28.279-.219-.258.058.116.107.198,1.741,2.919,2.577,5.745,2.189,9.159-.147,1.29,1.208,2.4,2.4,2.4,1.419,0,2.253-1.106,2.4-2.4h0Z"/></g></g></svg>